<?xml version="1.0" encoding="iso-8859-1"?>
<!-- Uploaded to: SVG Repo, www.svgrepo.com, Generator: SVG Repo Mixer Tools -->
<svg height="800px" width="800px" version="1.1" id="Layer_1" xmlns="http://www.w3.org/2000/svg" xmlns:xlink="http://www.w3.org/1999/xlink" 
	 viewBox="0 0 512.001 512.001" xml:space="preserve">
<path style="fill:#B5E06C;" d="M265.632,212.556c9.889,27.593,13.713,65.886,11.228,87.157
	c-3.876,33.22-27.966,57.697-53.821,54.684c-20.305-2.369-35.653-21.001-39.426-44.988c-20.936,12.284-45.078,12.232-59.783-1.983
	c-18.722-18.078-15.052-52.237,8.189-76.29c14.872-15.4,46.92-36.722,74.538-46.559c-28.842-5.215-63.929-21.052-81.105-33.838
	c-26.833-19.97-35.988-53.087-20.447-73.972c12.206-16.391,36.014-20.37,58.675-11.64c-0.167-24.271,11.949-45.156,31.597-50.782
	c25.031-7.172,52.778,13.082,61.984,45.233c5.897,20.589,8.344,58.997,3.052,87.839c18.94-22.378,50.203-44.834,69.864-53.319
	c30.696-13.262,63.954-4.622,74.268,19.275c8.099,18.773-0.361,41.37-19.249,56.628c21.104,12,33.13,32.924,28.185,52.765
	c-6.309,25.25-37.726,39.156-70.173,31.057c-20.756-5.176-55.199-22.237-77.526-41.216
	C265.67,212.582,265.645,212.569,265.632,212.556z"/>
<path d="M227.278,367.52c-1.9,0-3.81-0.109-5.731-0.333c-20.789-2.426-38.151-17.749-46.457-39.774
	c-22.3,7.539-45.16,3.822-60.21-10.729c-11.971-11.559-17.475-28.087-15.494-46.536c1.852-17.243,10.153-34.276,23.372-47.957
	c9.944-10.297,27.392-23.542,46.94-34.599c-21.08-7.733-40.45-17.972-51.936-26.523C85.278,136.892,74.922,95.626,94.674,69.08
	c12.501-16.788,34.458-24.154,57.676-20.336c4.622-23.081,19.266-41.016,39.382-46.778c16.003-4.585,33.076-1.089,48.06,9.849
	c14.01,10.223,24.608,25.928,29.846,44.218c3.944,13.769,6.69,35.506,6.492,57.959c17.234-14.384,35.79-26.04,48.944-31.717
	c17.461-7.541,36.325-9.296,53.116-4.938c17.957,4.662,31.48,15.648,38.078,30.933c8.289,19.217,3.699,41.914-11.221,60.114
	c17.671,15.546,25.886,37.197,20.828,57.495c-8.02,32.105-46.505,50.239-85.785,40.435c-13.884-3.462-34.088-11.953-53.435-23.352
	c3.838,22.13,4.655,44.025,2.994,58.243C285.23,339.065,257.887,367.518,227.278,367.52z M183.611,296.534
	c1.879,0,3.761,0.411,5.508,1.237c3.849,1.822,6.549,5.43,7.212,9.636c2.963,18.834,14.295,32.577,28.198,34.201
	c18.416,2.146,36.544-17.721,39.541-43.388c2.197-18.809-1.215-55.246-10.561-81.32c-2.399-6.694,1.083-14.066,7.777-16.466
	c4.643-1.664,9.616-0.498,13.025,2.609c21.093,17.821,53.739,33.73,72.012,38.286c25.078,6.258,50.065-3.671,54.565-21.684
	c3.383-13.571-5.481-29.026-22.058-38.451c-3.702-2.105-6.124-5.904-6.468-10.149c-0.346-4.244,1.429-8.385,4.742-11.06
	c14.828-11.976,21.064-28.658,15.519-41.511c-3.38-7.831-10.805-13.588-20.904-16.211c-11.27-2.925-24.208-1.628-36.436,3.654
	c-17.412,7.514-47.267,28.696-65.143,49.817c-3.767,4.452-10.06,5.815-15.334,3.321c-5.275-2.495-8.211-8.225-7.159-13.963
	c4.996-27.226,2.454-63.747-2.764-81.97c-3.668-12.81-10.866-23.644-20.27-30.507c-8.427-6.151-17.59-8.247-25.788-5.893
	c-13.451,3.852-22.4,19.249-22.269,38.316c0.028,4.259-2.05,8.257-5.553,10.679c-3.504,2.421-7.977,2.956-11.951,1.424
	c-17.788-6.854-35.36-3.913-43.72,7.316c-11.082,14.894-2.929,40.519,17.807,55.952c15.199,11.313,48.465,26.571,75.709,31.496
	c5.74,1.038,10.065,5.806,10.543,11.62c0.475,5.815-3.018,11.221-8.512,13.18c-26.089,9.293-56.439,29.75-69.597,43.375
	c-9.263,9.586-15.048,21.239-16.291,32.815c-1.112,10.373,1.651,19.346,7.783,25.268c10.068,9.733,27.878,9.788,44.323,0.14
	C179.101,297.127,181.353,296.534,183.611,296.534z"/>
<path d="M351.482,512.001c-1.106,0-2.23-0.144-3.352-0.446c-6.868-1.846-10.937-8.91-9.092-15.777
	c0.501-1.862,0.979-3.716,1.436-5.564c1.709-6.904,8.687-11.112,15.593-9.405c6.901,1.709,11.113,8.69,9.405,15.593
	c-0.498,2.012-1.018,4.034-1.564,6.062C362.363,508.213,357.162,512.001,351.482,512.001z"/>
<path d="M359.136,473.433c-0.545,0-1.093-0.033-1.647-0.106c-7.053-0.9-12.043-7.348-11.141-14.403
	c7.52-58.907-4.844-116.274-36.746-170.509c-24.512-41.671-52.083-65.847-52.36-66.087c-0.242-0.211-0.476-0.43-0.702-0.658
	c-0.004-0.004-0.009-0.008-0.013-0.012l0,0c-5.028-5.028-5.034-13.187-0.006-18.215c4.922-4.921,12.827-5.032,17.874-0.323
	c7.722,6.793,117.03,106.048,97.499,259.065C371.062,468.687,365.52,473.433,359.136,473.433z"/>
</svg>