<?xml version="1.0" encoding="iso-8859-1"?>
<!-- Uploaded to: SVG Repo, www.svgrepo.com, Generator: SVG Repo Mixer Tools -->
<svg version="1.1" id="Layer_1" xmlns="http://www.w3.org/2000/svg" xmlns:xlink="http://www.w3.org/1999/xlink" 
	 viewBox="0 0 512 512" xml:space="preserve">
<path style="fill:#F7A872;" d="M287.998,20.598h119.409c22.713,0,41.123,18.41,41.123,41.123v409.155
	c0,22.713-18.41,41.123-41.123,41.123H104.593c-22.701,0-41.123-18.41-41.123-41.123V61.722c0-22.713,18.422-41.123,41.123-41.123
	h119.421"/>
<g>
	<path style="fill:#E09461;" d="M90.974,470.877V61.722c0-22.713,18.422-41.123,41.123-41.123h-27.504
		c-22.701,0-41.123,18.41-41.123,41.123v409.155C63.47,493.59,81.892,512,104.593,512h27.504
		C109.396,512,90.974,493.59,90.974,470.877z"/>
	<rect x="117.453" y="84.171" style="fill:#E09461;" width="257.925" height="364.267"/>
</g>
<rect x="127.037" y="84.171" style="fill:#E6E6E6;" width="257.925" height="364.267"/>
<polygon style="fill:#CCCCCC;" points="333.422,115.942 157.401,115.942 167.584,84.171 323.239,84.171 "/>
<path style="fill:#F4BD64;" d="M325.198,57.273h-34.05V35.146C291.148,15.735,275.413,0,256.002,0l0,0
	c-19.41,0-35.146,15.735-35.146,35.146v22.128h-34.05l-18.817,58.675h176.025L325.198,57.273z"/>
<g>
	<polygon style="fill:#DDA758;" points="186.803,57.277 197.059,57.277 181.033,115.942 167.99,115.942 	"/>
	<path style="fill:#DDA758;" d="M231.154,10.298C237.51,3.941,246.3,0.005,256.006,0.005c-8.264,0-15.757,3.936-21.173,10.293
		c-5.415,6.357-8.765,15.146-8.765,24.852v22.126h-5.208V35.15C220.861,25.444,224.797,16.655,231.154,10.298z"/>
</g>
<g>
	<rect x="167.073" y="180.128" style="fill:#999999;" width="177.855" height="18.337"/>
	<rect x="167.073" y="296.861" style="fill:#999999;" width="177.855" height="18.337"/>
	<rect x="167.073" y="238.488" style="fill:#999999;" width="177.855" height="18.337"/>
	<rect x="167.073" y="355.233" style="fill:#999999;" width="177.855" height="18.337"/>
</g>
<circle style="fill:#E09461;" cx="256.006" cy="33.842" r="11.409"/>
</svg>